<?xml version="1.0" encoding="UTF-8"?> <svg xmlns="http://www.w3.org/2000/svg" width="122" height="22" viewBox="0 0 122 22" fill="none"><path d="M114.196 21.9242C112.511 21.9242 111.08 21.6197 109.903 21.0107C108.725 20.4016 107.67 19.5084 106.736 18.331L109.111 15.9559C109.7 16.8085 110.4 17.4784 111.212 17.9656C112.024 18.4325 113.06 18.666 114.318 18.666C115.496 18.666 116.429 18.4224 117.12 17.9352C117.83 17.448 118.185 16.7781 118.185 15.9255C118.185 15.215 118.003 14.6364 117.637 14.1898C117.272 13.7432 116.785 13.3778 116.176 13.0936C115.587 12.7891 114.927 12.5252 114.196 12.3019C113.486 12.0583 112.765 11.7944 112.034 11.5102C111.324 11.2057 110.664 10.8301 110.055 10.3835C109.466 9.93692 108.989 9.35837 108.624 8.64786C108.259 7.93736 108.076 7.034 108.076 5.93779C108.076 4.67918 108.38 3.61343 108.989 2.74052C109.619 1.84731 110.461 1.16726 111.517 0.700356C112.572 0.233452 113.75 0 115.049 0C116.45 0 117.698 0.274053 118.794 0.822157C119.911 1.37026 120.814 2.07062 121.504 2.92322L119.129 5.29834C118.52 4.60813 117.881 4.10063 117.211 3.77583C116.561 3.43073 115.81 3.25817 114.958 3.25817C113.902 3.25817 113.07 3.47133 112.461 3.89763C111.872 4.32393 111.578 4.92279 111.578 5.69419C111.578 6.3438 111.76 6.8716 112.126 7.2776C112.491 7.66331 112.968 7.99826 113.557 8.28246C114.166 8.54636 114.826 8.80012 115.536 9.04372C116.267 9.28732 116.988 9.56137 117.698 9.86587C118.429 10.1704 119.089 10.5662 119.677 11.0534C120.286 11.5203 120.774 12.1293 121.139 12.8804C121.504 13.6316 121.687 14.5755 121.687 15.7123C121.687 17.6205 121.007 19.1329 119.647 20.2494C118.307 21.3659 116.49 21.9242 114.196 21.9242Z" fill="white"></path><path d="M88.1238 21.6198V18.4226H93.7267C95.1883 18.4226 96.4672 18.1079 97.5634 17.4786C98.6799 16.8493 99.5427 15.9764 100.152 14.8599C100.781 13.7231 101.096 12.4137 101.096 10.9318C101.096 9.47021 100.781 8.18115 100.152 7.06464C99.5224 5.94813 98.6495 5.07522 97.533 4.44592C96.4367 3.81661 95.168 3.50196 93.7267 3.50196H88.1238V0.304688H93.818C95.3608 0.304688 96.792 0.578739 98.1115 1.12684C99.431 1.65465 100.578 2.40575 101.552 3.38016C102.547 4.33427 103.318 5.46093 103.867 6.76013C104.415 8.03904 104.689 9.43975 104.689 10.9623C104.689 12.4645 104.415 13.8652 103.867 15.1644C103.318 16.4636 102.557 17.6004 101.583 18.5748C100.608 19.5289 99.4615 20.28 98.142 20.8281C96.8224 21.3559 95.4014 21.6198 93.8789 21.6198H88.1238ZM85.7183 21.6198V0.304688H89.22V21.6198H85.7183Z" fill="white"></path><path d="M69.1631 21.6198V18.4226H81.0996V21.6198H69.1631ZM69.1631 12.2716V9.19615H81.0643V12.2716H69.1631ZM69.1631 3.50196V0.304688H80.9473V3.50196H69.1631Z" fill="white"></path><path d="M42.1245 21.6198V0.304688H44.5605L53.4215 14.8903H51.8381L60.6992 0.304688H63.1352V21.6198H59.6334V6.45563L60.4251 6.66879L53.8479 17.4786H51.4118L44.8346 6.66879L45.6263 6.45563V21.6198H42.1245Z" fill="white"></path><path d="M17.2769 21.6196V0.852539H18.434L27.569 15.834H26.686L35.821 0.852539H36.9782V21.6196H35.3643V3.62351L35.7601 3.71486L27.7213 16.8998H26.5642L18.5253 3.71486L18.8907 3.62351V21.6196H17.2769Z" fill="white"></path><path d="M0 21.6196V0.852539H1.61386V21.6196H0ZM1.03531 11.9973V10.5357H12.4237V11.9973H1.03531ZM1.03531 2.31415V0.852539H12.9413V2.31415H1.03531Z" fill="white"></path></svg> 